<?xml version="1.0" standalone="no"?>
<!DOCTYPE svg PUBLIC "-//W3C//DTD SVG 20010904//EN"
 "http://www.w3.org/TR/2001/REC-SVG-20010904/DTD/svg10.dtd">
<svg version="1.0" xmlns="http://www.w3.org/2000/svg"
 width="211.000000pt" height="211.000000pt" viewBox="0 0 211.000000 211.000000"
 preserveAspectRatio="xMidYMid meet">
<metadata>
Created by potrace 1.14, written by Peter Selinger 2001-2017
</metadata>
<g transform="translate(0.000000,211.000000) scale(0.100000,-0.100000)"
fill="#000000" stroke="none">
<path d="M985 2069 c-100 -6 -219 -27 -270 -49 -304 -128 -490 -302 -603 -565
-54 -126 -72 -212 -77 -375 -8 -238 50 -422 192 -622 123 -172 305 -303 514
-371 96 -32 130 -37 269 -44 450 -21 856 257 1003 687 27 78 32 100 45 198 13
90 7 243 -13 347 -19 95 -110 303 -155 353 -8 9 -24 31 -34 47 -34 54 -129
146 -211 204 -149 107 -310 170 -475 187 -36 3 -67 7 -70 8 -3 1 -54 -1 -115
-5z m150 -63 c427 -35 785 -365 855 -791 25 -149 6 -365 -41 -482 -108 -264
-262 -431 -502 -543 -281 -131 -622 -114 -889 47 -150 89 -288 240 -367 400
-180 364 -103 817 186 1096 175 170 353 251 603 276 36 4 70 6 75 5 6 -2 42
-5 80 -8z"/>
<path d="M947 1462 c-59 -59 -107 -110 -107 -112 0 -3 29 -4 65 -4 l65 2 0
-187 0 -186 80 0 80 0 0 187 0 187 60 -1 c33 -1 62 1 64 3 5 4 -180 212 -192
217 -4 1 -56 -46 -115 -106z"/>
<path d="M473 1183 c2 -79 6 -145 9 -148 3 -3 24 13 47 35 22 22 45 40 50 40
5 0 62 -56 127 -125 l118 -125 31 33 c16 18 44 42 62 53 l32 19 -129 130 -129
130 44 45 c25 25 45 48 45 50 0 3 -70 5 -156 5 l-156 0 5 -142z"/>
<path d="M1333 1301 c12 -14 32 -34 45 -44 12 -10 22 -22 22 -27 0 -4 -35 -44
-77 -88 -43 -44 -100 -102 -127 -130 l-48 -50 28 -15 c16 -8 44 -30 63 -49
l33 -34 124 125 123 126 45 -44 c25 -25 48 -43 50 -40 3 3 7 70 8 149 l3 144
-157 1 -158 1 23 -25z"/>
<path d="M975 887 c-35 -16 -82 -68 -97 -106 -16 -40 -10 -110 13 -150 64
-114 223 -123 304 -17 56 73 39 187 -36 247 -47 37 -133 49 -184 26z"/>
</g>
</svg>
